<mxfile host="app.diagrams.net" agent="Mozilla/5.0 (Macintosh; Intel Mac OS X 10_15_7) AppleWebKit/537.36 (KHTML, like Gecko) Chrome/136.0.0.0 Safari/537.36" version="26.2.13">
  <diagram id="prtHgNgQTEPvFCAcTncT" name="Page-1">
    <mxGraphModel dx="2019" dy="1163" grid="1" gridSize="10" guides="1" tooltips="1" connect="1" arrows="1" fold="1" page="1" pageScale="1" pageWidth="827" pageHeight="1169" math="0" shadow="0">
      <root>
        <mxCell id="0" />
        <mxCell id="1" parent="0" />
        <mxCell id="dNxyNK7c78bLwvsdeMH5-19" value="BeNe Immigration Dataset" style="swimlane;html=1;childLayout=stackLayout;resizeParent=1;resizeParentMax=0;horizontal=0;startSize=20;horizontalStack=0;movable=1;resizable=1;rotatable=1;deletable=1;editable=1;locked=0;connectable=1;rounded=1;fillColor=#e1d5e7;strokeColor=#9673a6;" parent="1" vertex="1">
          <mxGeometry x="30" y="255" width="970" height="880" as="geometry">
            <mxRectangle x="120" y="120" width="40" height="50" as="alternateBounds" />
          </mxGeometry>
        </mxCell>
        <mxCell id="dNxyNK7c78bLwvsdeMH5-20" value="Web" style="swimlane;html=1;startSize=20;horizontal=0;rounded=1;fillColor=#dae8fc;strokeColor=#6c8ebf;gradientColor=none;fillStyle=auto;swimlaneFillColor=#DAE8FC;" parent="dNxyNK7c78bLwvsdeMH5-19" vertex="1">
          <mxGeometry x="20" width="950" height="250" as="geometry" />
        </mxCell>
        <mxCell id="ugW0ozdRzP4cKi9ihy_w-2" value="Common Crawl" style="shape=datastore;whiteSpace=wrap;html=1;rounded=1;" parent="dNxyNK7c78bLwvsdeMH5-20" vertex="1">
          <mxGeometry x="50" y="110" width="60" height="60" as="geometry" />
        </mxCell>
        <mxCell id="ugW0ozdRzP4cKi9ihy_w-12" style="edgeStyle=orthogonalEdgeStyle;rounded=1;orthogonalLoop=1;jettySize=auto;html=1;exitX=1;exitY=0.5;exitDx=0;exitDy=0;" parent="dNxyNK7c78bLwvsdeMH5-20" source="ugW0ozdRzP4cKi9ihy_w-5" target="ugW0ozdRzP4cKi9ihy_w-6" edge="1">
          <mxGeometry relative="1" as="geometry" />
        </mxCell>
        <mxCell id="ugW0ozdRzP4cKi9ihy_w-5" value="Stage 1 results" style="shape=datastore;whiteSpace=wrap;html=1;rounded=1;" parent="dNxyNK7c78bLwvsdeMH5-20" vertex="1">
          <mxGeometry x="207" y="110" width="60" height="60" as="geometry" />
        </mxCell>
        <mxCell id="ugW0ozdRzP4cKi9ihy_w-13" style="edgeStyle=orthogonalEdgeStyle;rounded=1;orthogonalLoop=1;jettySize=auto;html=1;exitX=1;exitY=0.5;exitDx=0;exitDy=0;entryX=0;entryY=0.5;entryDx=0;entryDy=0;" parent="dNxyNK7c78bLwvsdeMH5-20" source="ugW0ozdRzP4cKi9ihy_w-6" target="ugW0ozdRzP4cKi9ihy_w-7" edge="1">
          <mxGeometry relative="1" as="geometry" />
        </mxCell>
        <mxCell id="ugW0ozdRzP4cKi9ihy_w-6" value="Translated data" style="shape=datastore;whiteSpace=wrap;html=1;rounded=1;" parent="dNxyNK7c78bLwvsdeMH5-20" vertex="1">
          <mxGeometry x="363" y="110" width="60" height="60" as="geometry" />
        </mxCell>
        <mxCell id="ugW0ozdRzP4cKi9ihy_w-14" style="edgeStyle=orthogonalEdgeStyle;rounded=1;orthogonalLoop=1;jettySize=auto;html=1;exitX=1;exitY=0.5;exitDx=0;exitDy=0;entryX=0;entryY=0.5;entryDx=0;entryDy=0;" parent="dNxyNK7c78bLwvsdeMH5-20" source="ugW0ozdRzP4cKi9ihy_w-7" target="ugW0ozdRzP4cKi9ihy_w-8" edge="1">
          <mxGeometry relative="1" as="geometry" />
        </mxCell>
        <mxCell id="ugW0ozdRzP4cKi9ihy_w-7" value="Stage 2 results" style="shape=datastore;whiteSpace=wrap;html=1;rounded=1;" parent="dNxyNK7c78bLwvsdeMH5-20" vertex="1">
          <mxGeometry x="520" y="110" width="60" height="60" as="geometry" />
        </mxCell>
        <mxCell id="ugW0ozdRzP4cKi9ihy_w-8" value="Web data" style="shape=datastore;whiteSpace=wrap;html=1;rounded=1;" parent="dNxyNK7c78bLwvsdeMH5-20" vertex="1">
          <mxGeometry x="850" y="110" width="60" height="60" as="geometry" />
        </mxCell>
        <mxCell id="ugW0ozdRzP4cKi9ihy_w-9" value="" style="endArrow=classic;html=1;rounded=1;exitX=1;exitY=0.5;exitDx=0;exitDy=0;entryX=0;entryY=0.5;entryDx=0;entryDy=0;" parent="dNxyNK7c78bLwvsdeMH5-20" source="ugW0ozdRzP4cKi9ihy_w-2" target="ugW0ozdRzP4cKi9ihy_w-5" edge="1">
          <mxGeometry width="50" height="50" relative="1" as="geometry">
            <mxPoint x="150" y="140" as="sourcePoint" />
            <mxPoint x="450" y="580" as="targetPoint" />
          </mxGeometry>
        </mxCell>
        <mxCell id="ugW0ozdRzP4cKi9ihy_w-10" value="&lt;b&gt;filter URI &amp;amp; stage 1 keywords&lt;/b&gt;" style="text;html=1;align=center;verticalAlign=middle;whiteSpace=wrap;rounded=1;" parent="dNxyNK7c78bLwvsdeMH5-20" vertex="1">
          <mxGeometry x="120" y="70" width="70" height="30" as="geometry" />
        </mxCell>
        <mxCell id="ugW0ozdRzP4cKi9ihy_w-15" value="&lt;b&gt;filter stage 2 keywords&lt;/b&gt;" style="text;html=1;align=center;verticalAlign=middle;whiteSpace=wrap;rounded=1;" parent="dNxyNK7c78bLwvsdeMH5-20" vertex="1">
          <mxGeometry x="440" y="70" width="70" height="30" as="geometry" />
        </mxCell>
        <mxCell id="ugW0ozdRzP4cKi9ihy_w-16" value="&lt;b&gt;machine translation &amp;amp; keyword extraction&lt;/b&gt;" style="text;html=1;align=center;verticalAlign=middle;whiteSpace=wrap;rounded=1;" parent="dNxyNK7c78bLwvsdeMH5-20" vertex="1">
          <mxGeometry x="280" y="70" width="70" height="30" as="geometry" />
        </mxCell>
        <mxCell id="ugW0ozdRzP4cKi9ihy_w-17" value="&lt;b&gt;classification&lt;/b&gt;" style="text;html=1;align=center;verticalAlign=middle;whiteSpace=wrap;rounded=1;" parent="dNxyNK7c78bLwvsdeMH5-20" vertex="1">
          <mxGeometry x="690" y="60" width="70" height="30" as="geometry" />
        </mxCell>
        <mxCell id="oxhq3QY5mhj4Ew_57Wnm-9" value="&lt;b&gt;#: 21.817&lt;/b&gt;" style="text;html=1;align=center;verticalAlign=middle;whiteSpace=wrap;rounded=1;" parent="dNxyNK7c78bLwvsdeMH5-20" vertex="1">
          <mxGeometry x="202" y="195" width="70" height="30" as="geometry" />
        </mxCell>
        <mxCell id="oxhq3QY5mhj4Ew_57Wnm-10" value="&lt;b&gt;#: 21.817&lt;/b&gt;" style="text;html=1;align=center;verticalAlign=middle;whiteSpace=wrap;rounded=1;" parent="dNxyNK7c78bLwvsdeMH5-20" vertex="1">
          <mxGeometry x="358" y="195" width="70" height="30" as="geometry" />
        </mxCell>
        <mxCell id="oxhq3QY5mhj4Ew_57Wnm-11" value="&lt;b&gt;#: 1.259&lt;/b&gt;" style="text;html=1;align=center;verticalAlign=middle;whiteSpace=wrap;rounded=1;" parent="dNxyNK7c78bLwvsdeMH5-20" vertex="1">
          <mxGeometry x="515" y="195" width="70" height="30" as="geometry" />
        </mxCell>
        <mxCell id="oxhq3QY5mhj4Ew_57Wnm-12" value="&lt;b&gt;#: 1.259&lt;/b&gt;&lt;div&gt;&lt;b&gt;R: 252&lt;/b&gt;&lt;/div&gt;&lt;div&gt;&lt;b&gt;D: 36&lt;/b&gt;&lt;/div&gt;" style="text;html=1;align=center;verticalAlign=middle;whiteSpace=wrap;rounded=1;" parent="dNxyNK7c78bLwvsdeMH5-20" vertex="1">
          <mxGeometry x="845" y="195" width="70" height="30" as="geometry" />
        </mxCell>
        <mxCell id="dNxyNK7c78bLwvsdeMH5-21" value="Tiktok" style="swimlane;html=1;startSize=20;horizontal=0;rounded=1;fillColor=#d5e8d4;strokeColor=#82b366;swimlaneFillColor=#D5E8D4;" parent="dNxyNK7c78bLwvsdeMH5-19" vertex="1">
          <mxGeometry x="20" y="250" width="950" height="250" as="geometry" />
        </mxCell>
        <mxCell id="ugW0ozdRzP4cKi9ihy_w-19" style="edgeStyle=orthogonalEdgeStyle;rounded=1;orthogonalLoop=1;jettySize=auto;html=1;exitX=0.875;exitY=0.5;exitDx=0;exitDy=0;exitPerimeter=0;" parent="dNxyNK7c78bLwvsdeMH5-21" source="ugW0ozdRzP4cKi9ihy_w-3" target="ugW0ozdRzP4cKi9ihy_w-18" edge="1">
          <mxGeometry relative="1" as="geometry" />
        </mxCell>
        <mxCell id="ugW0ozdRzP4cKi9ihy_w-3" value="TikTok" style="ellipse;shape=cloud;whiteSpace=wrap;html=1;rounded=1;" parent="dNxyNK7c78bLwvsdeMH5-21" vertex="1">
          <mxGeometry x="40" y="85" width="80" height="70" as="geometry" />
        </mxCell>
        <mxCell id="ugW0ozdRzP4cKi9ihy_w-23" value="" style="edgeStyle=orthogonalEdgeStyle;rounded=1;orthogonalLoop=1;jettySize=auto;html=1;" parent="dNxyNK7c78bLwvsdeMH5-21" source="ugW0ozdRzP4cKi9ihy_w-18" target="ugW0ozdRzP4cKi9ihy_w-21" edge="1">
          <mxGeometry relative="1" as="geometry" />
        </mxCell>
        <mxCell id="ugW0ozdRzP4cKi9ihy_w-18" value="Stage 1 results" style="shape=datastore;whiteSpace=wrap;html=1;rounded=1;" parent="dNxyNK7c78bLwvsdeMH5-21" vertex="1">
          <mxGeometry x="207" y="90" width="60" height="60" as="geometry" />
        </mxCell>
        <mxCell id="ugW0ozdRzP4cKi9ihy_w-20" value="&lt;b&gt;filter description stage 1 keywords&lt;/b&gt;" style="text;html=1;align=center;verticalAlign=middle;whiteSpace=wrap;rounded=1;" parent="dNxyNK7c78bLwvsdeMH5-21" vertex="1">
          <mxGeometry x="120" y="50" width="70" height="30" as="geometry" />
        </mxCell>
        <mxCell id="ugW0ozdRzP4cKi9ihy_w-26" value="" style="edgeStyle=orthogonalEdgeStyle;rounded=1;orthogonalLoop=1;jettySize=auto;html=1;" parent="dNxyNK7c78bLwvsdeMH5-21" source="ugW0ozdRzP4cKi9ihy_w-21" target="ugW0ozdRzP4cKi9ihy_w-25" edge="1">
          <mxGeometry relative="1" as="geometry" />
        </mxCell>
        <mxCell id="ugW0ozdRzP4cKi9ihy_w-21" value="Stage 2 results" style="shape=datastore;whiteSpace=wrap;html=1;rounded=1;" parent="dNxyNK7c78bLwvsdeMH5-21" vertex="1">
          <mxGeometry x="365" y="90" width="60" height="60" as="geometry" />
        </mxCell>
        <mxCell id="ugW0ozdRzP4cKi9ihy_w-24" value="&lt;b&gt;filter description stage 2 keywords &amp;amp; video duration&lt;/b&gt;" style="text;html=1;align=center;verticalAlign=middle;whiteSpace=wrap;rounded=1;" parent="dNxyNK7c78bLwvsdeMH5-21" vertex="1">
          <mxGeometry x="267" y="35" width="110" height="45" as="geometry" />
        </mxCell>
        <mxCell id="ugW0ozdRzP4cKi9ihy_w-30" value="" style="edgeStyle=orthogonalEdgeStyle;rounded=1;orthogonalLoop=1;jettySize=auto;html=1;" parent="dNxyNK7c78bLwvsdeMH5-21" source="ugW0ozdRzP4cKi9ihy_w-25" target="ugW0ozdRzP4cKi9ihy_w-28" edge="1">
          <mxGeometry relative="1" as="geometry" />
        </mxCell>
        <mxCell id="ugW0ozdRzP4cKi9ihy_w-25" value="Transcribed data" style="shape=datastore;whiteSpace=wrap;html=1;rounded=1;" parent="dNxyNK7c78bLwvsdeMH5-21" vertex="1">
          <mxGeometry x="524" y="90" width="70" height="60" as="geometry" />
        </mxCell>
        <mxCell id="ugW0ozdRzP4cKi9ihy_w-27" value="&lt;b&gt;transcription&lt;/b&gt;" style="text;html=1;align=center;verticalAlign=middle;whiteSpace=wrap;rounded=1;" parent="dNxyNK7c78bLwvsdeMH5-21" vertex="1">
          <mxGeometry x="435" y="55" width="70" height="30" as="geometry" />
        </mxCell>
        <mxCell id="ugW0ozdRzP4cKi9ihy_w-46" value="" style="edgeStyle=orthogonalEdgeStyle;rounded=1;orthogonalLoop=1;jettySize=auto;html=1;" parent="dNxyNK7c78bLwvsdeMH5-21" source="ugW0ozdRzP4cKi9ihy_w-28" target="ugW0ozdRzP4cKi9ihy_w-45" edge="1">
          <mxGeometry relative="1" as="geometry" />
        </mxCell>
        <mxCell id="ugW0ozdRzP4cKi9ihy_w-28" value="Translated data" style="shape=datastore;whiteSpace=wrap;html=1;rounded=1;" parent="dNxyNK7c78bLwvsdeMH5-21" vertex="1">
          <mxGeometry x="692" y="90" width="60" height="60" as="geometry" />
        </mxCell>
        <mxCell id="ugW0ozdRzP4cKi9ihy_w-29" value="&lt;b&gt;machine translation &amp;amp; keyword extraction&lt;/b&gt;" style="text;html=1;align=center;verticalAlign=middle;whiteSpace=wrap;rounded=1;" parent="dNxyNK7c78bLwvsdeMH5-21" vertex="1">
          <mxGeometry x="610" y="50" width="70" height="30" as="geometry" />
        </mxCell>
        <mxCell id="ugW0ozdRzP4cKi9ihy_w-45" value="TikTok data" style="shape=datastore;whiteSpace=wrap;html=1;rounded=1;" parent="dNxyNK7c78bLwvsdeMH5-21" vertex="1">
          <mxGeometry x="850" y="90" width="60" height="60" as="geometry" />
        </mxCell>
        <mxCell id="ugW0ozdRzP4cKi9ihy_w-47" value="&lt;b&gt;classification&lt;/b&gt;" style="text;html=1;align=center;verticalAlign=middle;whiteSpace=wrap;rounded=1;" parent="dNxyNK7c78bLwvsdeMH5-21" vertex="1">
          <mxGeometry x="760" y="50" width="70" height="30" as="geometry" />
        </mxCell>
        <mxCell id="oxhq3QY5mhj4Ew_57Wnm-13" value="&lt;b&gt;#: 52.367&lt;/b&gt;" style="text;html=1;align=center;verticalAlign=middle;whiteSpace=wrap;rounded=1;" parent="dNxyNK7c78bLwvsdeMH5-21" vertex="1">
          <mxGeometry x="202" y="175" width="70" height="30" as="geometry" />
        </mxCell>
        <mxCell id="oxhq3QY5mhj4Ew_57Wnm-14" value="&lt;b&gt;#: 357&lt;/b&gt;" style="text;html=1;align=center;verticalAlign=middle;whiteSpace=wrap;rounded=1;" parent="dNxyNK7c78bLwvsdeMH5-21" vertex="1">
          <mxGeometry x="360" y="175" width="70" height="30" as="geometry" />
        </mxCell>
        <mxCell id="oxhq3QY5mhj4Ew_57Wnm-15" value="&lt;b&gt;#: 357&lt;/b&gt;" style="text;html=1;align=center;verticalAlign=middle;whiteSpace=wrap;rounded=1;" parent="dNxyNK7c78bLwvsdeMH5-21" vertex="1">
          <mxGeometry x="524" y="175" width="70" height="30" as="geometry" />
        </mxCell>
        <mxCell id="oxhq3QY5mhj4Ew_57Wnm-16" value="&lt;b&gt;#: 357&lt;/b&gt;" style="text;html=1;align=center;verticalAlign=middle;whiteSpace=wrap;rounded=1;" parent="dNxyNK7c78bLwvsdeMH5-21" vertex="1">
          <mxGeometry x="687" y="175" width="70" height="30" as="geometry" />
        </mxCell>
        <mxCell id="oxhq3QY5mhj4Ew_57Wnm-17" value="&lt;b&gt;#: 357&lt;/b&gt;&lt;div&gt;&lt;b&gt;R: 88&lt;/b&gt;&lt;/div&gt;&lt;div&gt;&lt;b&gt;D: 24&lt;/b&gt;&lt;/div&gt;" style="text;html=1;align=center;verticalAlign=middle;whiteSpace=wrap;rounded=1;" parent="dNxyNK7c78bLwvsdeMH5-21" vertex="1">
          <mxGeometry x="845" y="175" width="70" height="30" as="geometry" />
        </mxCell>
        <mxCell id="dNxyNK7c78bLwvsdeMH5-22" value="Reddit" style="swimlane;html=1;startSize=20;horizontal=0;rounded=1;fillColor=#ffe6cc;strokeColor=#d79b00;swimlaneFillColor=#FFE6CC;" parent="dNxyNK7c78bLwvsdeMH5-19" vertex="1">
          <mxGeometry x="20" y="500" width="950" height="380" as="geometry" />
        </mxCell>
        <mxCell id="ugW0ozdRzP4cKi9ihy_w-50" style="edgeStyle=orthogonalEdgeStyle;rounded=1;orthogonalLoop=1;jettySize=auto;html=1;exitX=0.875;exitY=0.5;exitDx=0;exitDy=0;exitPerimeter=0;" parent="dNxyNK7c78bLwvsdeMH5-22" source="ugW0ozdRzP4cKi9ihy_w-51" edge="1">
          <mxGeometry relative="1" as="geometry">
            <mxPoint x="207" y="130" as="targetPoint" />
          </mxGeometry>
        </mxCell>
        <mxCell id="ugW0ozdRzP4cKi9ihy_w-51" value="Reddit" style="ellipse;shape=cloud;whiteSpace=wrap;html=1;rounded=1;" parent="dNxyNK7c78bLwvsdeMH5-22" vertex="1">
          <mxGeometry x="40" y="95" width="80" height="70" as="geometry" />
        </mxCell>
        <mxCell id="ugW0ozdRzP4cKi9ihy_w-54" value="&lt;b&gt;filter discussion stage 1 keywords,&amp;nbsp;&lt;/b&gt;&lt;b&gt;extract &amp;amp; concatenate discussions&lt;/b&gt;" style="text;html=1;align=center;verticalAlign=middle;whiteSpace=wrap;rounded=1;" parent="dNxyNK7c78bLwvsdeMH5-22" vertex="1">
          <mxGeometry x="90" y="30" width="140" height="60" as="geometry" />
        </mxCell>
        <mxCell id="ugW0ozdRzP4cKi9ihy_w-55" value="" style="edgeStyle=orthogonalEdgeStyle;rounded=1;orthogonalLoop=1;jettySize=auto;html=1;" parent="dNxyNK7c78bLwvsdeMH5-22" source="ugW0ozdRzP4cKi9ihy_w-56" target="ugW0ozdRzP4cKi9ihy_w-59" edge="1">
          <mxGeometry relative="1" as="geometry" />
        </mxCell>
        <mxCell id="ugW0ozdRzP4cKi9ihy_w-56" value="Stage 1 results" style="shape=datastore;whiteSpace=wrap;html=1;rounded=1;" parent="dNxyNK7c78bLwvsdeMH5-22" vertex="1">
          <mxGeometry x="207" y="100" width="60" height="60" as="geometry" />
        </mxCell>
        <mxCell id="ugW0ozdRzP4cKi9ihy_w-58" value="" style="edgeStyle=orthogonalEdgeStyle;rounded=1;orthogonalLoop=1;jettySize=auto;html=1;" parent="dNxyNK7c78bLwvsdeMH5-22" source="ugW0ozdRzP4cKi9ihy_w-59" target="ugW0ozdRzP4cKi9ihy_w-62" edge="1">
          <mxGeometry relative="1" as="geometry" />
        </mxCell>
        <mxCell id="ugW0ozdRzP4cKi9ihy_w-59" value="Stage 2 results" style="shape=datastore;whiteSpace=wrap;html=1;rounded=1;" parent="dNxyNK7c78bLwvsdeMH5-22" vertex="1">
          <mxGeometry x="360" y="100" width="70" height="60" as="geometry" />
        </mxCell>
        <mxCell id="ugW0ozdRzP4cKi9ihy_w-60" value="&lt;b&gt;filter stage 2 keywords&lt;/b&gt;" style="text;html=1;align=center;verticalAlign=middle;whiteSpace=wrap;rounded=1;" parent="dNxyNK7c78bLwvsdeMH5-22" vertex="1">
          <mxGeometry x="277" y="45" width="70" height="30" as="geometry" />
        </mxCell>
        <mxCell id="ugW0ozdRzP4cKi9ihy_w-61" value="" style="edgeStyle=orthogonalEdgeStyle;rounded=1;orthogonalLoop=1;jettySize=auto;html=1;" parent="dNxyNK7c78bLwvsdeMH5-22" source="ugW0ozdRzP4cKi9ihy_w-62" target="ugW0ozdRzP4cKi9ihy_w-64" edge="1">
          <mxGeometry relative="1" as="geometry" />
        </mxCell>
        <mxCell id="2yYRqjhKEZkg-xB81bI9-3" style="edgeStyle=orthogonalEdgeStyle;rounded=0;orthogonalLoop=1;jettySize=auto;html=1;entryX=0;entryY=0.5;entryDx=0;entryDy=0;" edge="1" parent="dNxyNK7c78bLwvsdeMH5-22" source="ugW0ozdRzP4cKi9ihy_w-62" target="2yYRqjhKEZkg-xB81bI9-1">
          <mxGeometry relative="1" as="geometry">
            <Array as="points">
              <mxPoint x="560" y="273" />
            </Array>
          </mxGeometry>
        </mxCell>
        <mxCell id="ugW0ozdRzP4cKi9ihy_w-62" value="Translated data" style="shape=datastore;whiteSpace=wrap;html=1;rounded=1;" parent="dNxyNK7c78bLwvsdeMH5-22" vertex="1">
          <mxGeometry x="529" y="100" width="60" height="60" as="geometry" />
        </mxCell>
        <mxCell id="ugW0ozdRzP4cKi9ihy_w-63" value="&lt;b&gt;machine translation &amp;amp; keyword extraction&lt;/b&gt;" style="text;html=1;align=center;verticalAlign=middle;whiteSpace=wrap;rounded=1;" parent="dNxyNK7c78bLwvsdeMH5-22" vertex="1">
          <mxGeometry x="440" y="45" width="70" height="30" as="geometry" />
        </mxCell>
        <mxCell id="ugW0ozdRzP4cKi9ihy_w-64" value="Reddit data" style="shape=datastore;whiteSpace=wrap;html=1;rounded=1;" parent="dNxyNK7c78bLwvsdeMH5-22" vertex="1">
          <mxGeometry x="850" y="100" width="60" height="60" as="geometry" />
        </mxCell>
        <mxCell id="ugW0ozdRzP4cKi9ihy_w-65" value="&lt;b&gt;classification&lt;/b&gt;" style="text;html=1;align=center;verticalAlign=middle;whiteSpace=wrap;rounded=1;" parent="dNxyNK7c78bLwvsdeMH5-22" vertex="1">
          <mxGeometry x="690" y="60" width="70" height="30" as="geometry" />
        </mxCell>
        <mxCell id="oxhq3QY5mhj4Ew_57Wnm-18" value="&lt;b&gt;#: 2.704&lt;/b&gt;" style="text;html=1;align=center;verticalAlign=middle;whiteSpace=wrap;rounded=1;" parent="dNxyNK7c78bLwvsdeMH5-22" vertex="1">
          <mxGeometry x="202" y="185" width="70" height="30" as="geometry" />
        </mxCell>
        <mxCell id="oxhq3QY5mhj4Ew_57Wnm-20" value="&lt;b&gt;#: 412&lt;/b&gt;" style="text;html=1;align=center;verticalAlign=middle;whiteSpace=wrap;rounded=1;" parent="dNxyNK7c78bLwvsdeMH5-22" vertex="1">
          <mxGeometry x="360" y="185" width="70" height="30" as="geometry" />
        </mxCell>
        <mxCell id="oxhq3QY5mhj4Ew_57Wnm-21" value="&lt;b&gt;#: 412&lt;/b&gt;" style="text;html=1;align=center;verticalAlign=middle;whiteSpace=wrap;rounded=1;" parent="dNxyNK7c78bLwvsdeMH5-22" vertex="1">
          <mxGeometry x="524" y="185" width="70" height="30" as="geometry" />
        </mxCell>
        <mxCell id="oxhq3QY5mhj4Ew_57Wnm-22" value="&lt;b&gt;#: 412&lt;/b&gt;&lt;div&gt;&lt;b&gt;R: 55&lt;/b&gt;&lt;/div&gt;&lt;div&gt;&lt;b&gt;D: 52&lt;/b&gt;&lt;/div&gt;" style="text;html=1;align=center;verticalAlign=middle;whiteSpace=wrap;rounded=1;" parent="dNxyNK7c78bLwvsdeMH5-22" vertex="1">
          <mxGeometry x="845" y="185" width="70" height="30" as="geometry" />
        </mxCell>
        <mxCell id="2yYRqjhKEZkg-xB81bI9-1" value="Reddit threaded data" style="shape=datastore;whiteSpace=wrap;html=1;rounded=1;" vertex="1" parent="dNxyNK7c78bLwvsdeMH5-22">
          <mxGeometry x="850" y="235" width="60" height="75" as="geometry" />
        </mxCell>
        <mxCell id="2yYRqjhKEZkg-xB81bI9-2" value="&lt;b&gt;#: 44.757&lt;/b&gt;&lt;div&gt;&lt;b&gt;R: 1.519&lt;/b&gt;&lt;/div&gt;&lt;div&gt;&lt;b&gt;D: 328&lt;/b&gt;&lt;/div&gt;" style="text;html=1;align=center;verticalAlign=middle;whiteSpace=wrap;rounded=1;" vertex="1" parent="dNxyNK7c78bLwvsdeMH5-22">
          <mxGeometry x="845" y="325" width="70" height="30" as="geometry" />
        </mxCell>
      </root>
    </mxGraphModel>
  </diagram>
</mxfile>
